<svg width="22" height="16" viewBox="0 0 22 16" fill="none" xmlns="http://www.w3.org/2000/svg">
<path d="M9.37215 14.6589C8.6847 15.3463 7.57011 15.3463 6.88265 14.6589L0.515593 8.29181C-0.171864 7.60435 -0.171865 6.48976 0.515593 5.80231C1.20305 5.11485 2.31764 5.11485 3.0051 5.80231L9.37215 12.1694C10.0596 12.8568 10.0596 13.9714 9.37215 14.6589Z" fill="#333333"/>
<path d="M6.88265 14.6589C6.19519 13.9714 6.19519 12.8569 6.88265 12.1695L18.5365 0.515593C19.224 -0.171864 20.3386 -0.171865 21.0261 0.515593C21.7135 1.20305 21.7135 2.31764 21.0261 3.0051L9.37215 14.6589C8.6847 15.3463 7.57011 15.3463 6.88265 14.6589Z" fill="#333333"/>
</svg>
